<svg xmlns="http://www.w3.org/2000/svg" viewBox="0 0 380.05 365.11"><defs><style>.cls-1{fill:#a2c541;}.cls-2{fill:#fff;}.cls-3{fill:#66a951;}.cls-4{fill:#09773f;}.cls-5{fill:#37a7d9;}.cls-6{fill:#f4de04;}</style></defs><g id="Capa_2" data-name="Capa 2"><g id="Capa_1-2" data-name="Capa 1"><path class="cls-1" d="M49.09,242.37c5.35-2,108.83-15.3,168.16-27.55a25.76,25.76,0,0,0-19.76-9.3H74.77a25.84,25.84,0,0,0-25.83,25.83"/><path class="cls-1" d="M57.38,358.39a25.8,25.8,0,0,0,17.44,6.72H197.44a25.81,25.81,0,0,0,25.83-25.81h0V278.74C155.94,311,83,344.93,57.38,358.39Z"/><path class="cls-2" d="M176,238.86a1.79,1.79,0,1,0,1.78,1.78A1.79,1.79,0,0,0,176,238.86Z"/><rect id="R_Mediano" data-name="R Mediano" class="cls-3" x="167.72" y="105.08" width="212.33" height="194.4" rx="29.03"/><path class="cls-4" d="M0,169v22.51a25.82,25.82,0,0,0,25.83,25.83H211.54a25.83,25.83,0,0,0,25.82-25.83v-43.4C122.26,121.54,0,169,0,169Z"/><path class="cls-5" d="M211.54,0H25.84A25.83,25.83,0,0,0,0,25.83V169s122.26-47.43,237.36-20.92V25.83A25.83,25.83,0,0,0,211.54,0Z"/><path class="cls-6" d="M124.19,139.73l27.43-10.31,3.58-60.85L138.37,95.06l-9.3-15.75L116.54,97.56,89.34,72.85,74,103.65,57.84,90.76,54.08,111,24.72,88.43,62.31,147.5l.59,1.16c1-.16.5-.3,1.48-.4l-23.73-41L68.22,128,93.63,91.48l37.6,27.2,18.6-29.35V128l-28.6,11.63M66.78,119.86l-8.6-5.74,3.59-12.89,10.38,6.45Zm61.92-9.3-8.59-9.3,9-9.67,6.45,7.53Z"/><path class="cls-2" d="M57.38,358.39c51.15-26.92,292.22-136,297.41-148.95,2.86-7.16,13.6-34-243.8-64.44,0,0,71.59-7.88,102.39-1.08,0,0-95.59-25-213.38,21.48v5.37s80.21-22.91,106-23.62S258.12,188,258.12,201.21,56.57,239.57,49.05,242.37v98.57a26.16,26.16,0,0,0,8.13,17.32Z"/></g></g></svg>